<?xml version="1.0" encoding="UTF-8"?>
<svg fill="#FFFFFF" width="100pt" height="100pt" version="1.1" viewBox="0 0 100 100" xmlns="http://www.w3.org/2000/svg">
 <g>
  <path d="m49.996 8.2148c-23.043 0-41.777 18.762-41.777 41.801s18.73 41.773 41.777 41.773c23.039 0 41.781-18.734 41.781-41.773s-18.742-41.801-41.781-41.801zm0 79.266c-20.668 0-37.484-16.801-37.484-37.469 0-20.691 16.82-37.492 37.484-37.492 20.656 0 37.477 16.801 37.477 37.492 0 20.668-16.816 37.469-37.477 37.469z"/>
  <path d="m52.148 30.996v-6.9258c0-1.2031-0.96484-2.1523-2.1523-2.1523-1.1914 0-2.1602 0.94531-2.1602 2.1523v6.9258c-9.543 1.0781-16.969 9.1875-16.969 19.016 0 10.543 8.5703 19.125 19.129 19.125 10.551 0 19.133-8.5859 19.133-19.125 0.003906-9.832-7.4414-17.941-16.98-19.016zm-2.1523 33.84c-8.1836 0-14.836-6.6562-14.836-14.824 0-7.4531 5.5195-13.617 12.68-14.668v14.668c0 1.1758 0.96875 2.1289 2.1602 2.1289 1.1836 0 2.1523-0.94922 2.1523-2.1289v-14.672c7.1602 1.0469 12.691 7.2148 12.691 14.672-0.003906 8.168-6.668 14.824-14.848 14.824z"/>
 </g>
</svg>
