<?xml version="1.0" encoding="UTF-8"?>
<svg fill="#FFFFFF" width="100pt" height="100pt" version="1.1" viewBox="0 0 100 100" xmlns="http://www.w3.org/2000/svg">
 <path d="m50 15.5c-19 0-34.5 15.5-34.5 34.5s15.5 34.5 34.5 34.5 34.5-15.5 34.5-34.5-15.5-34.5-34.5-34.5zm0 66c-8.6992 0-16.602-3.5-22.301-9.3008 6.1016-8.1992 14-12.699 22.301-12.699s16.199 4.5 22.301 12.699c-5.6992 5.8008-13.602 9.3008-22.301 9.3008zm0-26c-6.3008 0-11.398-5.1016-11.398-11.398 0-6.3008 5.0977-11.402 11.398-11.402s11.398 5.1016 11.398 11.398c0 6.3008-5.0977 11.402-11.398 11.402zm24.301 14.5c-5.1016-6.8008-11.402-11.199-18.301-12.801 5-2.3008 8.3984-7.3008 8.3984-13.102 0-8-6.5-14.398-14.398-14.398-8 0-14.398 6.5-14.398 14.398 0 5.8008 3.5 10.801 8.3984 13.102-6.8984 1.6016-13.199 6-18.301 12.699-4.5-5.3984-7.1992-12.398-7.1992-20 0-17.398 14.102-31.5 31.5-31.5s31.5 14.203 31.5 31.602c0 7.6016-2.6992 14.5-7.1992 20z"/>
</svg>
